Coordinates
version=1
nRows=60
nColumns=12
inDegrees=yes

Units are S.I. units (second, meters, Newtons, ...)
Angles are in degrees

endheader
time	SC_y	SC_z	SC_x	AC_y	AC_z	AC_x	GH_y	GH_z	GH_yy	EL_x	PS_y
       0.0               -57.8          23.41          26.26           43.0          2.022         -6.594          161.6         -15.89         -15.54          79.66          123.2
   0.01818               -57.8          23.41          26.26          42.99          2.023          -6.59          161.6         -15.89         -15.52          79.65          123.2
   0.03635              -57.79           23.4          26.26          42.99          2.024         -6.586          161.5         -15.89         -15.49          79.64          123.2
   0.05453              -57.79           23.4          26.26          42.99          2.025         -6.582          161.5         -15.88         -15.46          79.63          123.2
    0.0727              -57.78           23.4          26.26          42.99          2.027         -6.577          161.4         -15.88         -15.43          79.62          123.2
   0.09088              -57.78           23.4          26.25          42.99          2.028         -6.572          161.3         -15.87          -15.4          79.61          123.2
    0.1091              -57.77           23.4          26.25          42.98          2.029         -6.567          161.3         -15.87         -15.37          79.59          123.1
    0.1272              -57.77          23.39          26.25          42.98          2.031         -6.562          161.2         -15.86         -15.33          79.58          123.1
    0.1454              -57.76          23.39          26.25          42.98          2.032         -6.556          161.1         -15.85         -15.29          79.56          123.1
    0.1636              -57.75          23.39          26.25          42.98          2.034         -6.549          161.0         -15.85         -15.25          79.55          123.1
    0.1818              -57.74          23.39          26.25          42.97          2.036         -6.543          160.9         -15.84         -15.21          79.53          123.0
    0.1999              -57.74          23.38          26.24          42.97          2.038         -6.535          160.8         -15.83         -15.16          79.51          123.0
    0.2181              -57.73          23.38          26.24          42.97           2.04         -6.527          160.7         -15.83         -15.11          79.49          123.0
    0.2363              -57.72          23.38          26.24          42.96          2.042         -6.519          160.6         -15.82         -15.05          79.47          122.9
    0.2545              -57.71          23.37          26.24          42.96          2.045          -6.51          160.5         -15.81         -14.99          79.44          122.9
    0.2726               -57.7          23.37          26.23          42.95          2.048           -6.5          160.4          -15.8         -14.93          79.42          122.8
    0.2908              -57.68          23.36          26.23          42.95          2.051         -6.489          160.2         -15.79         -14.85          79.39          122.8
     0.309              -57.67          23.36          26.23          42.94          2.054         -6.477          160.1         -15.77         -14.78          79.36          122.7
    0.3272              -57.65          23.35          26.22          42.94          2.057         -6.464          159.9         -15.76         -14.69          79.33          122.7
    0.3453              -57.64          23.35          26.22          42.93          2.061          -6.45          159.7         -15.75          -14.6          79.29          122.6
    0.3635              -57.62          23.34          26.22          42.92          2.065         -6.434          159.5         -15.73          -14.5          79.25          122.6
    0.3817               -57.6          23.33          26.21          42.91           2.07         -6.417          159.3         -15.71         -14.38          79.21          122.5
    0.3999              -57.58          23.33          26.21          42.91          2.075         -6.398          159.0         -15.69         -14.26          79.16          122.4
    0.4181              -57.55          23.32           26.2           42.9          2.081         -6.377          158.8         -15.67         -14.12           79.1          122.3
    0.4362              -57.53          23.31          26.19          42.89          2.087         -6.354          158.5         -15.65         -13.97          79.04          122.2
    0.4544               -57.5           23.3          26.19          42.87          2.094         -6.328          158.1         -15.62          -13.8          78.98          122.1
    0.4726              -57.46          23.29          26.18          42.86          2.102         -6.299          157.7         -15.59         -13.61           78.9          122.0
    0.4908              -57.43          23.27          26.17          42.84          2.111         -6.266          157.3         -15.56         -13.39          78.82          121.8
    0.5089              -57.38          23.26          26.16          42.83          2.121         -6.229          156.8         -15.52         -13.15          78.72          121.7
    0.5271              -57.33          23.24          26.15          42.81          2.133         -6.187          156.3         -15.48         -12.87          78.61          121.5
    0.5453              -57.28          23.22          26.13          42.79          2.146         -6.139          155.6         -15.43         -12.56          78.49          121.3
    0.5635              -57.22           23.2          26.12          42.76          2.161         -6.084          154.9         -15.37          -12.2          78.35          121.0
    0.5816              -57.14          23.17           26.1          42.73          2.178         -6.021          154.1         -15.31         -11.78          78.18          120.8
    0.5998              -57.06          23.14          26.08           42.7          2.198         -5.947          153.1         -15.23         -11.29          77.99          120.4
     0.618              -56.96           23.1          26.05          42.66          2.221          -5.86          152.0         -15.14         -10.73          77.77          120.1
    0.6362              -56.84          23.06          26.02          42.61          2.249         -5.759          150.6         -15.04         -10.06          77.51          119.6
    0.6543               -56.7          23.01          25.99          42.55          2.282         -5.638          149.0         -14.91         -9.264          77.19          119.1
    0.6725              -56.53          22.95          25.95          42.49          2.322         -5.493          147.1         -14.77         -8.311          76.82          118.5
    0.6907              -56.33          22.88           25.9           42.4          2.369         -5.317          144.8         -14.59         -7.159          76.37          117.7
    0.7089              -56.08          22.79          25.84          42.31          2.428         -5.103          142.0         -14.37         -5.751          75.81          116.8
     0.727              -55.78          22.68          25.76          42.18            2.5         -4.838          138.5         -14.09         -4.013          75.13          115.6
    0.7452              -55.39          22.54          25.67          42.03          2.589         -4.508          134.1         -13.76         -1.846          74.28          114.2
    0.7634              -54.91          22.37          25.55          41.84          2.702         -4.093          128.7         -13.33         0.8832          73.21          112.4
    0.7816               -54.3          22.15           25.4          41.59          2.846         -3.564          121.7         -12.79          4.353          71.85          110.1
    0.7998              -53.52          21.87          25.21          41.28           3.03         -2.888          112.8          -12.1          8.794           70.1          107.2
    0.8179              -52.52          21.51          24.97          40.88          3.266          -2.02          101.4         -11.21          14.49          67.86          103.4
    0.8361              -51.24          21.04          24.65          40.36          3.567        -0.9119          86.79         -10.07          21.77           65.0          98.58
    0.8543              -49.63          20.47          24.26          39.72          3.946         0.4819          68.44         -8.643          30.93          61.41          92.53
    0.8725              -47.67          19.76          23.78          38.93          4.408           2.18          46.07         -6.902          42.08          57.02          85.15
    0.8906              -45.39          18.94          23.22          38.02          4.944          4.149          20.15         -4.884          55.01          51.94          76.61
    0.9088              -42.93          18.05          22.62          37.03          5.524          6.281         -7.926           -2.7          69.02          46.44          67.35
     0.927              -40.47          17.17          22.01          36.04          6.103          8.413          -36.0        -0.5153          83.02          40.94          58.09
    0.9452              -38.19          16.35          21.45          35.13          6.639          10.38         -61.92          1.502          95.95          35.86          49.55
    0.9633              -36.23          15.64          20.97          34.34          7.101          12.08         -84.29          3.243          107.1          31.48          42.17
    0.9815              -34.62          15.06          20.58          33.69           7.48          13.47         -102.6          4.671          116.3          27.88          36.12
    0.9997              -33.34           14.6          20.27          33.18          7.781          14.58         -117.2          5.807          123.5          25.02          31.31
     1.018              -32.34          14.24          20.02          32.78          8.017          15.45         -128.7          6.696          129.2          22.79          27.54
     1.036              -31.56          13.96          19.83          32.47          8.201          16.13         -137.6          7.389          133.7          21.04           24.6
     1.054              -30.95          13.74          19.68          32.22          8.345          16.65         -144.5          7.931          137.1          19.68          22.31
     1.072              -30.47          13.57          19.56          32.03          8.458          17.07         -150.0          8.357          139.9          18.61           20.5
